<?xml version="1.0"?>
<svg version="1.1" xmlns="http://www.w3.org/2000/svg" width="180px" height="63px" style=""><path fill="#6874fc" d="M2.6953125,49.48828125l0-21.416015625l4.541015625,0l0,21.416015625l-4.541015625,0z M29.454638671875,49.48828125l-4.4677734375,0l0-9.5654296875q0-1.7724609375-0.6298828125-2.65869140625t-2.0068359375-0.88623046875q-1.875,0-2.7099609375,1.25244140625t-0.8349609375,4.15283203125l0,7.705078125l-4.4677734375,0l0-16.376953125l3.4130859375,0l0.6005859375,2.0947265625l0.2490234375,0q0.7470703125-1.1865234375,2.05810546875-1.79443359375t2.98095703125-0.60791015625q2.8564453125,0,4.3359375,1.54541015625t1.4794921875,4.46044921875l0,10.6787109375z M40.01279296875,49.48828125l-6.240234375-16.376953125l4.6728515625,0l3.1640625,9.3310546875q0.52734375,1.7724609375,0.6591796875,3.3544921875l0.087890625,0q0.0732421875-1.40625,0.6591796875-3.3544921875l3.1494140625-9.3310546875l4.6728515625,0l-6.240234375,16.376953125l-4.5849609375,0z M62.026025390625,35.982421875q-1.4208984375,0-2.2265625,0.90087890625t-0.9228515625,2.55615234375l6.26953125,0q-0.029296875-1.6552734375-0.8642578125-2.55615234375t-2.255859375-0.90087890625z M62.655908203125,49.78125q-3.955078125,0-6.181640625-2.1826171875t-2.2265625-6.181640625q0-4.1162109375,2.05810546875-6.36474609375t5.69091796875-2.24853515625q3.4716796875,0,5.4052734375,1.9775390625t1.93359375,5.4638671875l0,2.16796875l-10.5615234375,0q0.0732421875,1.904296875,1.1279296875,2.9736328125t2.958984375,1.0693359375q1.4794921875,0,2.7978515625-0.3076171875t2.75390625-0.9814453125l0,3.45703125q-1.171875,0.5859375-2.5048828125,0.87158203125t-3.251953125,0.28564453125z M90.14765625,49.48828125l-4.4677734375,0l0-9.5654296875q0-1.7724609375-0.6298828125-2.65869140625t-2.0068359375-0.88623046875q-1.875,0-2.7099609375,1.25244140625t-0.8349609375,4.15283203125l0,7.705078125l-4.4677734375,0l0-16.376953125l3.4130859375,0l0.6005859375,2.0947265625l0.2490234375,0q0.7470703125-1.1865234375,2.05810546875-1.79443359375t2.98095703125-0.60791015625q2.8564453125,0,4.3359375,1.54541015625t1.4794921875,4.46044921875l0,10.6787109375z M103.70874023438,46.2216796875q1.171875,0,2.8125-0.5126953125l0,3.3251953125q-1.669921875,0.7470703125-4.1015625,0.7470703125q-2.6806640625,0-3.90380859375-1.35498046875t-1.22314453125-4.06494140625l0-7.8955078125l-2.138671875,0l0-1.8896484375l2.4609375-1.494140625l1.2890625-3.45703125l2.8564453125,0l0,3.486328125l4.5849609375,0l0,3.3544921875l-4.5849609375,0l0,7.8955078125q0,0.9521484375,0.53466796875,1.40625t1.41357421875,0.4541015625z M115.45341796875,41.2705078125q0,2.431640625,0.79833984375,3.6767578125t2.60009765625,1.2451171875q1.787109375,0,2.57080078125-1.23779296875t0.78369140625-3.68408203125q0-2.431640625-0.791015625-3.6474609375t-2.5927734375-1.2158203125q-1.787109375,0-2.578125,1.20849609375t-0.791015625,3.65478515625z M126.77666015625,41.2705078125q0,3.9990234375-2.109375,6.2548828125t-5.8740234375,2.255859375q-2.3583984375,0-4.16015625-1.03271484375t-2.7685546875-2.96630859375t-0.966796875-4.51171875q0-4.013671875,2.0947265625-6.240234375t5.888671875-2.2265625q2.3583984375,0,4.16015625,1.025390625t2.7685546875,2.9443359375t0.966796875,4.4970703125z M141.67075195313,32.8037109375q0.908203125,0,1.5087890625,0.1318359375l-0.3369140625,4.189453125q-0.5419921875-0.146484375-1.318359375-0.146484375q-2.138671875,0-3.33251953125,1.0986328125t-1.19384765625,3.076171875l0,8.3349609375l-4.4677734375,0l0-16.376953125l3.3837890625,0l0.6591796875,2.75390625l0.2197265625,0q0.76171875-1.376953125,2.05810546875-2.21923828125t2.81982421875-0.84228515625z M145.871484375,33.111328125l4.892578125,0l3.0908203125,9.2138671875q0.3955078125,1.201171875,0.5419921875,2.841796875l0.087890625,0q0.1611328125-1.5087890625,0.6298828125-2.841796875l3.0322265625-9.2138671875l4.7900390625,0l-6.9287109375,18.4716796875q-0.9521484375,2.5634765625-2.71728515625,3.837890625t-4.12353515625,1.2744140625q-1.1572265625,0-2.2705078125-0.2490234375l0-3.544921875q0.8056640625,0.1904296875,1.7578125,0.1904296875q1.1865234375,0,2.07275390625-0.72509765625t1.38427734375-2.18994140625l0.263671875-0.8056640625z"/><path fill="#" d=""/></svg>
